<svg width="91" height="27" viewBox="0 0 91 27" fill="none" xmlns="http://www.w3.org/2000/svg">
<path d="M16.7383 22.0725V26.1858H3.85352V22.0725H16.7383ZM5.55859 0.592041V26.1858H0.285156V0.592041H5.55859ZM33.2969 0.592041H38.5527V17.5022C38.5527 19.4709 38.1309 21.1292 37.2871 22.4768C36.4551 23.8245 35.3008 24.8381 33.8242 25.5178C32.3594 26.1975 30.6719 26.5374 28.7617 26.5374C26.8516 26.5374 25.1523 26.1975 23.6641 25.5178C22.1875 24.8381 21.0273 23.8245 20.1836 22.4768C19.3516 21.1292 18.9355 19.4709 18.9355 17.5022V0.592041H24.209V17.5022C24.209 18.6506 24.3906 19.5881 24.7539 20.3147C25.1172 21.0413 25.6387 21.5745 26.3184 21.9143C27.0098 22.2542 27.8242 22.4241 28.7617 22.4241C29.7227 22.4241 30.5371 22.2542 31.2051 21.9143C31.8848 21.5745 32.4004 21.0413 32.752 20.3147C33.1152 19.5881 33.2969 18.6506 33.2969 17.5022V0.592041ZM63.7246 0.592041V26.1858H58.4512L48.168 9.02954V26.1858H42.8945V0.592041H48.168L58.4688 17.7659V0.592041H63.7246ZM79.0352 4.96899L72.0742 26.1858H66.4668L75.9766 0.592041H79.5449L79.0352 4.96899ZM84.8184 26.1858L77.8398 4.96899L77.2773 0.592041H80.8809L90.4434 26.1858H84.8184ZM84.502 16.6584V20.7893H70.9844V16.6584H84.502Z" fill="black"/>
</svg>
