<svg width="28" height="27" viewBox="0 0 28 27" fill="none" xmlns="http://www.w3.org/2000/svg">
<path fill-rule="evenodd" clip-rule="evenodd" d="M14.0002 0C21.7321 0 28 6.04409 28 13.5C28 20.9559 21.7321 27 14.0002 27C6.26794 27 0 20.9559 0 13.5C0 6.04409 6.26794 0 14.0002 0ZM25.8486 13.5C25.8486 19.8112 20.5437 24.9274 14.0002 24.9274C7.45628 24.9274 2.15177 19.8112 2.15177 13.5C2.15177 7.18883 7.45628 2.07262 14.0002 2.07262C20.5437 2.07262 25.8486 7.18883 25.8486 13.5ZM22.6145 13.5065C22.6145 12.935 22.1401 12.4721 21.5555 12.4721H15.0748V6.23209V6.23189C15.0748 5.65847 14.5923 5.19337 13.998 5.19337C13.4033 5.19337 12.9208 5.65847 12.9208 6.23189V13.5025C12.9208 14.0761 13.4033 14.5412 13.998 14.5412H21.5561C22.1401 14.5412 22.6145 14.078 22.6145 13.5065Z" fill="black"/>
</svg>
