<svg width="41" height="40" viewBox="0 0 41 40" fill="none" xmlns="http://www.w3.org/2000/svg">
<path d="M39.3335 20C39.3335 30.4934 30.8269 39 20.3335 39C9.84009 39 1.3335 30.4934 1.3335 20C1.3335 9.50659 9.84009 1 20.3335 1C30.8269 1 39.3335 9.50659 39.3335 20Z" stroke="#979797" stroke-width="2"/>
<path fill-rule="evenodd" clip-rule="evenodd" d="M18.2401 21.5842V18.4158H25.8333C26.3619 22.2496 24.7667 28 18.2401 28C13.8738 28 10.3335 24.4179 10.3335 19.9997C10.3335 15.5814 13.8738 12 18.2401 12C20.2887 12 22.1554 12.7882 23.5601 14.0817C22.472 15.1217 22.123 15.5184 21.8266 15.8553C21.6723 16.0307 21.5323 16.1899 21.3097 16.4151C20.4972 15.7353 19.6114 15.2475 18.2401 15.2475C15.6461 15.2475 13.6215 17.3753 13.6215 19.9997C13.6215 22.6247 15.6461 24.7525 18.2401 24.7525C20.8032 24.7525 21.8445 23.6341 22.5144 21.5798C21.2776 21.5798 18.2401 21.5842 18.2401 21.5842ZM32.487 15.802V18.5741H35.2265V20.5542H32.487V23.4061H30.5302V20.5542H27.7117V18.5741H30.5302V15.802H32.487Z" fill="#979797"/>
</svg>
