<svg width="40" height="40" viewBox="0 0 40 40" fill="none" xmlns="http://www.w3.org/2000/svg">
<path d="M39 20C39 30.4934 30.4934 39 20 39C9.50659 39 1 30.4934 1 20C1 9.50659 9.50659 1 20 1C30.4934 1 39 9.50659 39 20Z" stroke="#979797" stroke-width="2"/>
<path fill-rule="evenodd" clip-rule="evenodd" d="M20.25 11.8469C22.9869 11.8469 23.311 11.8573 24.3918 11.9066C25.3912 11.9522 25.9339 12.1192 26.2952 12.2595C26.7736 12.4455 27.115 12.6676 27.4737 13.0263C27.8324 13.385 28.0545 13.7264 28.2404 14.2048C28.3808 14.5661 28.5478 15.1088 28.5934 16.1081C28.6427 17.189 28.6531 17.5131 28.6531 20.25C28.6531 22.9869 28.6427 23.3111 28.5934 24.3919C28.5478 25.3912 28.3808 25.934 28.2404 26.2952C28.0545 26.7736 27.8324 27.1151 27.4737 27.4737C27.115 27.8324 26.7736 28.0546 26.2952 28.2405C25.9339 28.3808 25.3912 28.5478 24.3918 28.5934C23.3112 28.6427 22.987 28.6532 20.25 28.6532C17.5129 28.6532 17.1888 28.6427 16.1081 28.5934C15.1088 28.5478 14.566 28.3808 14.2048 28.2405C13.7264 28.0546 13.3849 27.8324 13.0263 27.4737C12.6676 27.1151 12.4454 26.7736 12.2595 26.2952C12.1192 25.934 11.9522 25.3912 11.9066 24.3919C11.8573 23.3111 11.8468 22.9869 11.8468 20.25C11.8468 17.5131 11.8573 17.189 11.9066 16.1082C11.9522 15.1088 12.1192 14.5661 12.2595 14.2048C12.4454 13.7264 12.6676 13.385 13.0263 13.0263C13.3849 12.6676 13.7264 12.4455 14.2048 12.2595C14.566 12.1192 15.1088 11.9522 16.1081 11.9066C17.1889 11.8573 17.5131 11.8469 20.25 11.8469M20.25 10C17.4662 10 17.1172 10.0118 16.0239 10.0617C14.9329 10.1115 14.1878 10.2847 13.5358 10.5381C12.8618 10.8001 12.2902 11.1506 11.7203 11.7204C11.1505 12.2902 10.8 12.8618 10.5381 13.5359C10.2847 14.1879 10.1114 14.9329 10.0616 16.024C10.0118 17.1172 10 17.4663 10 20.25C10 23.0338 10.0118 23.3828 10.0616 24.4761C10.1114 25.5671 10.2847 26.3122 10.5381 26.9642C10.8 27.6382 11.1505 28.2098 11.7203 28.7797C12.2902 29.3495 12.8618 29.7 13.5358 29.9619C14.1878 30.2153 14.9329 30.3886 16.0239 30.4384C17.1172 30.4882 17.4662 30.5 20.25 30.5C23.0337 30.5 23.3828 30.4882 24.476 30.4384C25.5671 30.3886 26.3121 30.2153 26.9641 29.9619C27.6382 29.7 28.2098 29.3495 28.7796 28.7797C29.3494 28.2098 29.6999 27.6382 29.9619 26.9642C30.2153 26.3122 30.3885 25.5671 30.4383 24.4761C30.4882 23.3828 30.5 23.0338 30.5 20.25C30.5 17.4663 30.4882 17.1172 30.4383 16.024C30.3885 14.9329 30.2153 14.1879 29.9619 13.5359C29.6999 12.8618 29.3494 12.2902 28.7796 11.7204C28.2098 11.1506 27.6382 10.8001 26.9641 10.5381C26.3121 10.2847 25.5671 10.1115 24.476 10.0617C23.3828 10.0118 23.0337 10 20.25 10M20.2703 15.003C17.3613 15.003 15.003 17.3613 15.003 20.2703C15.003 23.1794 17.3613 25.5377 20.2703 25.5377C23.1794 25.5377 25.5377 23.1794 25.5377 20.2703C25.5377 17.3613 23.1794 15.003 20.2703 15.003V15.003ZM20.2703 23.6895C18.382 23.6895 16.8512 22.1587 16.8512 20.2703C16.8512 18.382 18.382 16.8512 20.2703 16.8512C22.1587 16.8512 23.6895 18.382 23.6895 20.2703C23.6895 22.1587 22.1587 23.6895 20.2703 23.6895V23.6895ZM26.9206 14.7589C26.9206 15.4328 26.3743 15.9792 25.7004 15.9792C25.0265 15.9792 24.4802 15.4328 24.4802 14.7589C24.4802 14.085 25.0265 13.5387 25.7004 13.5387C26.3743 13.5387 26.9206 14.085 26.9206 14.7589" fill="#979797"/>
</svg>
