<svg width="32" height="25" viewBox="0 0 32 25" fill="none" xmlns="http://www.w3.org/2000/svg">
<path fill-rule="evenodd" clip-rule="evenodd" d="M30 19.2308H32V0H2V1.92308H30V19.2308ZM0 3.84615H28V21.1538H15.882C15.952 20.926 16 20.6856 16 20.4327V19.2308H22C22 17.1067 23.791 15.3846 26 15.3846V9.61539C23.791 9.61539 22 7.89327 22 5.76923H6C6 7.89327 4.209 9.61539 2 9.61539V12.5H1C0.646 12.5 0.314 12.5606 0 12.6558V3.84615ZM15.9713 16.8349C15.966 16.8651 15.9606 16.8954 15.956 16.926C17.744 16.1923 19 14.4856 19 12.5C19 9.84327 16.763 7.69231 14 7.69231C11.238 7.69231 9 9.84327 9 12.5H13C14.684 12.5 16 13.6606 16 15.1442V16.5865C16 16.6733 15.9857 16.754 15.9713 16.8349ZM1 17.3077H13C13.554 17.3077 14 16.9846 14 16.5865V15.1442C14 14.7462 13.554 14.4231 13 14.4231H1C0.447 14.4231 0 14.7462 0 15.1442V16.5865C0 16.9846 0.447 17.3077 1 17.3077ZM13 21.1538H1C0.447 21.1538 0 20.8308 0 20.4327V18.9904C0 18.5923 0.447 18.2692 1 18.2692H13C13.554 18.2692 14 18.5923 14 18.9904V20.4327C14 20.8308 13.554 21.1538 13 21.1538ZM13 25H1C0.447 25 0 24.6769 0 24.2788V22.8365C0 22.4385 0.447 22.1154 1 22.1154H13C13.554 22.1154 14 22.4385 14 22.8365V24.2788C14 24.6769 13.554 25 13 25Z" fill="black"/>
</svg>
