<svg width="19" height="26" viewBox="0 0 19 26" fill="none" xmlns="http://www.w3.org/2000/svg">
<path fill-rule="evenodd" clip-rule="evenodd" d="M9.01134 25.3516L9.5 26L9.98866 25.3516C10.3562 24.8633 19 13.3373 19 8.7104C19 3.9077 14.7381 0 9.5 0C4.26194 0 0 3.9077 0 8.7104C0 13.3373 8.64381 24.8633 9.01134 25.3516ZM1.1875 8.7104C1.1875 4.50763 4.91625 1.0888 9.5 1.0888C14.0837 1.0888 17.8125 4.50763 17.8125 8.7104C17.8125 12.4052 11.3495 21.5337 9.5 24.0701C7.65047 21.5337 1.1875 12.4052 1.1875 8.7104Z" fill="#4C4C4C"/>
<path fill-rule="evenodd" clip-rule="evenodd" d="M5 9C5 11.2057 6.79486 13 9 13C11.2051 13 13 11.2057 13 9C13 6.79429 11.2051 5 9 5C6.79486 5 5 6.79429 5 9ZM6.14286 9C6.14286 7.42457 7.42457 6.14286 9 6.14286C10.5754 6.14286 11.8571 7.42457 11.8571 9C11.8571 10.5754 10.5754 11.8571 9 11.8571C7.42457 11.8571 6.14286 10.5754 6.14286 9Z" fill="#4C4C4C"/>
</svg>
