<svg width="41" height="40" viewBox="0 0 41 40" fill="none" xmlns="http://www.w3.org/2000/svg">
<path d="M39.6665 20C39.6665 30.4934 31.1599 39 20.6665 39C10.1731 39 1.6665 30.4934 1.6665 20C1.6665 9.50659 10.1731 1 20.6665 1C31.1599 1 39.6665 9.50659 39.6665 20Z" stroke="#979797" stroke-width="2"/>
<path fill-rule="evenodd" clip-rule="evenodd" d="M27.9295 15.3714C28.7588 14.9034 29.3951 14.1613 29.6937 13.2773C28.9173 13.7118 28.0593 14.0259 27.1439 14.196C26.4134 13.4593 25.3693 13 24.2139 13C21.9971 13 20.2008 14.6954 20.2008 16.7863C20.2008 17.0831 20.2341 17.3724 20.303 17.6486C16.9676 17.4905 14.01 15.9846 12.0287 13.6923C11.683 14.2534 11.4854 14.9034 11.4854 15.5968C11.4854 16.9098 12.1941 18.069 13.2715 18.7493C12.6133 18.7298 11.9943 18.5576 11.4521 18.2759V18.3225C11.4521 20.1577 12.835 21.6884 14.6739 22.0351C14.3362 22.1239 13.9824 22.1684 13.6149 22.1684C13.3565 22.1684 13.1038 22.1456 12.8603 22.1012C13.3702 23.6049 14.853 24.7012 16.6104 24.7305C15.2355 25.7466 13.5046 26.3511 11.6244 26.3511C11.3005 26.3511 10.9801 26.3349 10.6665 26.2991C12.4433 27.3727 14.5533 28 16.8205 28C24.2058 28 28.2419 22.2301 28.2419 17.2261C28.2419 17.0615 28.2396 16.8979 28.2316 16.7365C29.0161 16.2024 29.6983 15.535 30.2347 14.7756C29.5145 15.0768 28.7404 15.2804 27.9295 15.3714Z" fill="#979797"/>
</svg>
